<?xml version="1.0" encoding="utf-8"?>
<svg xmlns="http://www.w3.org/2000/svg" viewBox="0 0 32 32" width="512" height="512">
  <path d="M3 6L3 7L3 24L15 24L15 26L10 26L10 28L22 28L22 26L17 26L17 24L29 24L29 6L3 6 z M 5 8L27 8L27 22L5 22L5 8 z M 19.292969 9.2929688L15.585938 13L19.292969 16.707031L20.707031 15.292969L18.414062 13L20.707031 10.707031L19.292969 9.2929688 z M 12.707031 13.292969L11.292969 14.707031L13.585938 17L11.292969 19.292969L12.707031 20.707031L16.414062 17L12.707031 13.292969 z" fill="#1F2937" />
</svg>