<?xml version="1.0" encoding="utf-8"?>
<svg xmlns="http://www.w3.org/2000/svg" viewBox="0 0 26 26" width="208" height="208">
  <path d="M25,2V1c0-0.551-0.449-1-1-1H2C1.449,0,1,0.449,1,1v1h2v3H1v16h2v3H1v1c0,0.551,0.449,1,1,1h22c0.551,0,1-0.449,1-1v-1h-1v-3h1V5h-1V2H25z M12,2h3v3h-3V2z M9,24H6v-3h3V24z M9,5H6V2h3V5z M15,24h-3v-3h3V24z M17.626,13.597l-6.593,3.806C10.574,17.668,10,17.337,10,16.806V9.194c0-0.531,0.574-0.862,1.034-0.597l6.593,3.806C18.086,12.668,18.086,13.332,17.626,13.597z M21,24h-3v-3h3V24z M21,5h-3V2h3V5z" fill="#1F2937" />
</svg>