<?xml version="1.0" encoding="utf-8"?>
<svg xmlns="http://www.w3.org/2000/svg" viewBox="0 0 30 30" width="480" height="480">
  <path d="M15 4 A 1 1 0 0 0 14.279297 4.3066406 A 1 1 0 0 0 14.234375 4.3554688L8 11L8 15L8 19L14.279297 25.693359 A 1 1 0 0 0 15 26 A 1 1 0 0 0 16 25L16 15L16 5 A 1 1 0 0 0 15 4 z M 27 5 A 1 1 0 0 0 26 6 A 1 1 0 0 0 27 7 A 1 1 0 0 0 28 6 A 1 1 0 0 0 27 5 z M 23 7 A 1 1 0 0 0 22 8 A 1 1 0 0 0 23 9 A 1 1 0 0 0 24 8 A 1 1 0 0 0 23 7 z M 19 9 A 1 1 0 0 0 18 10 A 1 1 0 0 0 19 11 A 1 1 0 0 0 20 10 A 1 1 0 0 0 19 9 z M 4 11C2.895 11 2 11.895 2 13L2 17C2 18.105 2.895 19 4 19L6 19L6 11L4 11 z M 20 14 A 1 1 0 0 0 19 15 A 1 1 0 0 0 20 16 A 1 1 0 0 0 21 15 A 1 1 0 0 0 20 14 z M 24 14 A 1 1 0 0 0 23 15 A 1 1 0 0 0 24 16 A 1 1 0 0 0 25 15 A 1 1 0 0 0 24 14 z M 28 14 A 1 1 0 0 0 27 15 A 1 1 0 0 0 28 16 A 1 1 0 0 0 29 15 A 1 1 0 0 0 28 14 z M 19 19 A 1 1 0 0 0 18 20 A 1 1 0 0 0 19 21 A 1 1 0 0 0 20 20 A 1 1 0 0 0 19 19 z M 23 21 A 1 1 0 0 0 22 22 A 1 1 0 0 0 23 23 A 1 1 0 0 0 24 22 A 1 1 0 0 0 23 21 z M 27 23 A 1 1 0 0 0 26 24 A 1 1 0 0 0 27 25 A 1 1 0 0 0 28 24 A 1 1 0 0 0 27 23 z" fill="#1F2937" />
</svg>