<?xml version="1.0" encoding="utf-8"?>
<svg xmlns="http://www.w3.org/2000/svg" viewBox="0 0 128 128" width="512" height="512">
  <path d="M64 6C40.3 6 21 25.3 21 49L21 54C21 55.7 22.3 57 24 57C25.7 57 27 55.7 27 54L27 49C27 28.6 43.6 12 64 12C84.4 12 101 28.6 101 49L101 67.599609C96.4 69.599609 93 75.8 93 83C93 90.2 96.4 96.400391 101 98.400391L101 99C101 100.7 102.3 102 104 102C105.7 102 107 100.7 107 99L107 98.400391C111.6 96.400391 115 90.2 115 83C115 75.8 111.6 69.599609 107 67.599609L107 49C107 25.3 87.7 6 64 6 z M 35 61C30.6 61 26.400781 63.199609 23.300781 67.099609C17.600781 67.599609 13 74.7 13 83C13 91.3 17.599219 98.400391 23.199219 98.900391C26.299219 102.70039 30.4 105 35 105C44.4 105 52 95.1 52 83C52 70.9 44.4 61 35 61 z M 93 61C83.6 61 76 70.9 76 83C76 95.1 83.6 105 93 105C94.7 105 96 103.7 96 102C96 100.3 94.7 99 93 99C87 99 82 91.7 82 83C82 74.3 87 67 93 67C94.7 67 96 65.7 96 64C96 62.3 94.7 61 93 61 z M 35 73C36.8 73 40 76.8 40 83C40 89.2 36.8 93 35 93C33.2 93 30 89.2 30 83C30 76.8 33.2 73 35 73 z M 104 108C102.3 108 101 109.3 101 111C101 113.2 99.2 115 97 115L72.5 115C71.2 111.5 67.9 109 64 109L60 109C55 109 51 113 51 118C51 123 55 127 60 127L64 127C67.9 127 71.2 124.5 72.5 121L97 121C102.5 121 107 116.5 107 111C107 109.3 105.7 108 104 108 z M 60 115L64 115C65.7 115 67 116.3 67 118C67 119.7 65.7 121 64 121L60 121C58.3 121 57 119.7 57 118C57 116.3 58.3 115 60 115 z" fill="#1F2937" />
</svg>