<?xml version="1.0" encoding="utf-8"?>
<svg xmlns="http://www.w3.org/2000/svg" viewBox="0 0 48 48" width="144" height="144">
  <path d="M10.5 5C8.019 5 6 7.019 6 9.5L6 30.5C6 32.981 8.019 35 10.5 35L20 35L20 17.5C20 14.085 22.649 11.282391 26 11.025391L26 9.5C26 7.019 23.981 5 21.5 5L10.5 5 z M 26.5 13C24.019 13 22 15.019 22 17.5L22 38.5C22 40.981 24.019 43 26.5 43L37.5 43C39.981 43 42 40.981 42 38.5L42 17.5C42 15.019 39.981 13 37.5 13L26.5 13 z M 14.5 27L17.5 27C18.328 27 19 27.671 19 28.5C19 29.329 18.328 30 17.5 30L14.5 30C13.672 30 13 29.329 13 28.5C13 27.671 13.672 27 14.5 27 z M 30.5 35L33.5 35C34.328 35 35 35.671 35 36.5C35 37.329 34.328 38 33.5 38L30.5 38C29.672 38 29 37.329 29 36.5C29 35.671 29.672 35 30.5 35 z" fill="#1F2937" />
</svg>